<svg viewBox="0 0 560 100" fill="none" xmlns="http://www.w3.org/2000/svg">
<path d="M24.956 0C37.445 0.660839 47.3685 10.9963 47.3685 23.6501V68.3871H26.3157C11.7821 68.3871 0.000226768 56.605 0 42.0714V26.2815C6.15356e-07 12.2038 11.0542 0.707633 24.956 0Z" fill="#3100D3"/>
<path d="M0 42.1056C0.000226768 56.6392 11.7821 68.4213 26.3157 68.4213H47.3685V76.3157C47.3685 89.396 36.7646 99.9999 23.6843 100C10.6039 100 6.33529e-05 89.3961 0 76.3157V42.1056Z" fill="#6741FF"/>
<path d="M59.6491 0C74.1828 6.35291e-07 85.9648 11.782 85.9648 26.3157V42.1056C85.9646 56.6392 74.1827 68.4213 59.6491 68.4213H47.3685V23.6843C47.3685 11.0305 37.445 0.695041 24.956 0.0342019C25.4063 0.0112775 25.8597 1.07865e-06 26.3157 0H59.6491Z" fill="#BF00C9"/>
<path d="M525.403 99.5975C518.593 99.5975 512.599 98.0535 507.423 94.9656C502.248 91.8777 498.161 87.6545 495.165 82.296C492.259 76.8467 490.806 70.5347 490.806 63.3598C490.806 56.2757 492.259 50.009 495.165 44.5598C498.161 39.1105 502.248 34.8873 507.423 31.8902C512.599 28.8023 518.593 27.2583 525.403 27.2583C532.213 27.2583 538.207 28.8023 543.383 31.8902C548.558 34.8873 552.599 39.1105 555.505 44.5598C558.502 50.009 560 56.2757 560 63.3598C560 70.5347 558.502 76.8467 555.505 82.296C552.599 87.7453 548.558 92.0139 543.383 95.1018C538.207 98.0989 532.213 99.5975 525.403 99.5975ZM525.403 86.9279C529.58 86.9279 533.212 85.9743 536.3 84.067C539.478 82.1598 541.93 79.4351 543.655 75.8931C545.471 72.3511 546.379 68.2187 546.379 63.496C546.379 58.5916 545.471 54.4139 543.655 50.9627C541.93 47.4206 539.478 44.696 536.3 42.7887C533.212 40.7907 529.58 39.7916 525.403 39.7916C521.226 39.7916 517.548 40.7907 514.37 42.7887C511.283 44.696 508.831 47.4206 507.015 50.9627C505.29 54.4139 504.427 58.5462 504.427 63.3598C504.427 68.1733 505.29 72.3511 507.015 75.8931C508.831 79.4351 511.283 82.1598 514.37 84.067C517.548 85.9743 521.226 86.9279 525.403 86.9279Z" fill="black"/>
<path d="M467.149 98.2303V1.61034L480.166 0L480.568 1.07356V98.2303H467.149Z" fill="black"/>
<path d="M423.761 100C416.956 100 410.922 98.5015 405.659 95.5044C400.488 92.4165 396.45 88.1479 393.547 82.6986C390.643 77.2493 389.191 70.9372 389.191 63.7624C389.191 56.5875 390.598 50.3208 393.41 44.9623C396.314 39.5131 400.306 35.2899 405.387 32.2928C410.559 29.2049 416.502 27.6609 423.216 27.6609C429.84 27.6609 435.601 29.2049 440.501 32.2928C445.491 35.3807 449.348 39.7401 452.07 45.371C454.882 50.9111 456.289 57.4049 456.289 64.8522V66.8957L454.247 68.9392H396.133V56.9508H449.756L442.815 59.6754C442.633 55.5884 441.635 52.0918 439.821 49.1855C438.097 46.2793 435.783 44.0541 432.879 42.5102C430.067 40.8754 426.891 40.058 423.352 40.058C419.542 40.058 416.048 40.9662 412.873 42.7826C409.697 44.5991 407.202 47.1421 405.387 50.4116C403.663 53.5904 402.801 57.314 402.801 61.5826V65.6696C402.801 69.8474 403.709 73.6165 405.523 76.9769C407.338 80.2464 409.833 82.8348 413.009 84.7421C416.185 86.6493 419.768 87.603 423.761 87.603C427.572 87.603 430.929 86.6493 433.832 84.7421C436.826 82.744 439.185 80.1102 440.909 76.8406H442.543L453.567 81.6088C450.935 87.3305 447.034 91.8261 441.862 95.0957C436.69 98.3653 430.656 100 423.761 100Z" fill="black"/>
<path d="M350.065 100C343.104 100 336.967 98.5015 331.655 95.5044C326.342 92.4165 322.175 88.1479 319.152 82.6986C316.221 77.2493 314.755 70.9372 314.755 63.7624C314.755 56.5875 316.221 50.3208 319.152 44.9623C322.175 39.5131 326.342 35.2899 331.655 32.2928C336.967 29.2049 343.104 27.6609 350.065 27.6609C355.469 27.6609 360.277 28.5691 364.491 30.3855C368.796 32.202 372.459 34.8812 375.482 38.4232C378.505 41.8744 380.749 46.143 382.214 51.229L370.536 54.4986H369.025C367.559 50.0483 365.086 46.5517 361.606 44.0087C358.217 41.4657 354.37 40.1942 350.065 40.1942C345.668 40.1942 341.867 41.1933 338.661 43.1913C335.456 45.1894 332.937 47.9595 331.105 51.5015C329.365 54.9527 328.495 59.0397 328.495 63.7624C328.495 68.4851 329.365 72.6174 331.105 76.1595C332.937 79.7015 335.456 82.4715 338.661 84.4696C341.867 86.3769 345.668 87.3305 350.065 87.3305C353.179 87.3305 356.018 86.7856 358.583 85.6957C361.148 84.6058 363.346 83.0165 365.178 80.9276C367.101 78.7479 368.567 76.1595 369.574 73.1624H371.086L382.901 76.4319C381.252 81.5179 378.871 85.8319 375.757 89.374C372.643 92.916 368.933 95.5952 364.628 97.4117C360.415 99.1373 355.56 100 350.065 100Z" fill="black"/>
<path d="M269.674 98.9516V30.806H282.753V49.0956L279.036 47.8763C280.871 42.6378 283.992 38.4831 288.397 35.4123C292.894 32.3415 298.034 30.806 303.816 30.806H310.562V43.27H301.613C297.942 43.27 294.73 44.1281 291.977 45.8441C289.315 47.4699 287.204 49.773 285.644 52.7535C284.176 55.734 283.441 59.2565 283.441 63.3208V98.9516H269.674Z" fill="black"/>
<path d="M225.614 100C218.809 100 212.776 98.5015 207.513 95.5044C202.341 92.4165 198.304 88.1479 195.4 82.6986C192.497 77.2493 191.045 70.9372 191.045 63.7624C191.045 56.5875 192.451 50.3208 195.264 44.9623C198.168 39.5131 202.16 35.2899 207.241 32.2928C212.413 29.2049 218.356 27.6609 225.07 27.6609C231.693 27.6609 237.455 29.2049 242.355 32.2928C247.345 35.3807 251.201 39.7401 253.923 45.371C256.736 50.9111 258.142 57.4049 258.142 64.8522V66.8957L256.101 68.9392H197.986V56.9508H251.609L244.668 59.6754C244.487 55.5884 243.489 52.0918 241.674 49.1855C239.95 46.2793 237.636 44.0541 234.733 42.5102C231.92 40.8754 228.745 40.058 225.206 40.058C221.395 40.058 217.902 40.9662 214.726 42.7826C211.551 44.5991 209.056 47.1421 207.241 50.4116C205.517 53.5904 204.655 57.314 204.655 61.5826V65.6696C204.655 69.8474 205.562 73.6165 207.377 76.9769C209.192 80.2464 211.687 82.8348 214.862 84.7421C218.038 86.6493 221.622 87.603 225.614 87.603C229.425 87.603 232.782 86.6493 235.686 84.7421C238.68 82.744 241.039 80.1102 242.763 76.8406H244.396L255.42 81.6088C252.789 87.3305 248.887 91.8261 243.716 95.0957C238.544 98.3653 232.51 100 225.614 100Z" fill="black"/>
<path d="M174.05 29.6107C174.05 24.4651 172.507 20.4421 169.419 17.5419C166.425 14.5481 162.169 13.0512 156.649 13.0512H128.02V0H157.491C166.94 0 174.424 2.71314 179.944 8.13943C185.558 13.4722 188.364 20.6292 188.364 29.6107H174.05ZM120.723 98.2345V0H134.476V98.2345H120.723ZM128.02 59.2214V46.3106H156.649C162.169 46.3106 166.425 44.8136 169.419 41.8198C172.507 38.826 174.05 34.7563 174.05 29.6107H188.364C188.364 38.5921 185.558 45.796 179.944 51.2223C174.424 56.555 166.94 59.2214 157.491 59.2214H128.02Z" fill="black"/>
</svg>
